<?xml version="1.0" encoding="UTF-8" standalone="no"?>
<svg
   xmlns:dc="http://purl.org/dc/elements/1.1/"
   xmlns:cc="http://creativecommons.org/ns#"
   xmlns:rdf="http://www.w3.org/1999/02/22-rdf-syntax-ns#"
   xmlns:svg="http://www.w3.org/2000/svg"
   xmlns="http://www.w3.org/2000/svg"
   xmlns:sodipodi="http://sodipodi.sourceforge.net/DTD/sodipodi-0.dtd"
   xmlns:inkscape="http://www.inkscape.org/namespaces/inkscape"
   viewBox="0 0 183 50"
   version="1.1"
   id="svg3376"
   height="50"
   width="183"
   inkscape:version="0.91 r13725"
   sodipodi:docname="logo-white.svg">
  <sodipodi:namedview
     pagecolor="#ffffff"
     bordercolor="#666666"
     borderopacity="1"
     objecttolerance="10"
     gridtolerance="10"
     guidetolerance="10"
     inkscape:pageopacity="0"
     inkscape:pageshadow="2"
     inkscape:window-width="1247"
     inkscape:window-height="672"
     id="namedview3362"
     showgrid="false"
     inkscape:zoom="6.2404372"
     inkscape:cx="66.822242"
     inkscape:cy="25"
     inkscape:window-x="0"
     inkscape:window-y="0"
     inkscape:window-maximized="0"
     inkscape:current-layer="svg3376" />
  <defs
     id="defs3378" />
  <metadata
     id="metadata3381">
    <rdf:RDF>
      <cc:Work
         rdf:about="">
        <dc:format>image/svg+xml</dc:format>
        <dc:type
           rdf:resource="http://purl.org/dc/dcmitype/StillImage" />
        <dc:title></dc:title>
      </cc:Work>
    </rdf:RDF>
  </metadata>
  <g
     style="display:inline;fill:#ffffff"
     transform="translate(0,-10)"
     id="layer1">
    <g
       id="g3493"
       style="fill:#ffffff">
      <g
         id="text3391"
         style="font-style:normal;font-variant:normal;font-weight:100;font-stretch:normal;font-size:40px;line-height:125%;font-family:'Hoefler Text';-inkscape-font-specification:'Hoefler Text, Thin';text-align:start;letter-spacing:0px;word-spacing:0px;writing-mode:lr-tb;text-anchor:start;fill:#ffffff;fill-opacity:1;stroke:none;stroke-width:1px;stroke-linecap:butt;stroke-linejoin:miter;stroke-opacity:1">
        <path
           id="path3500"
           style="fill:#ffffff"
           d="m 34.998513,46.636764 q 0,3.98 -2.36,6.34 -2.36,2.34 -6.38,2.34 -1.78,0 -4.26,-0.64 -2.26,-0.6 -3.7,-0.6 -0.12,-3.4 -0.48,-6.8 0,-0.32 0.6,-0.32 0.42,0 0.52,0.32 1.08,3.72 2.76,5.24 1.68,1.52 4.72,1.52 2.42,0 3.74,-1.4 1.34,-1.4 1.34,-3.92 0,-1.62 -1.16,-3 -1.16,-1.4 -4.94,-3.6 -4.34,-2.5 -5.68,-4.24 -1.34,-1.74 -1.34,-3.86 0,-3.26 2.4,-5.5 2.42,-2.26 6.12,-2.26 1.4,0 3.22,0.38 1.7,0.34 2.94,0.34 0.24,3.52 0.64,6.2 0,0.32 -0.52,0.32 -0.56,0 -0.62,-0.32 -0.66,-3 -2,-4.32 -1.34,-1.32 -3.7,-1.32 -2.24,0 -3.56,1.32 -1.32,1.32 -1.32,3.56 0,1.42 1.1,2.72 1.12,1.28 4.82,3.44 4.38,2.56 5.74,4.28 1.36,1.72 1.36,3.78 z" />
        <path
           id="path3502"
           style="fill:#ffffff"
           d="m 56.511013,46.156764 q 0,3.98 -2.6,6.56 -2.58,2.56 -6.7,2.56 -4.12,0 -6.72,-2.58 -2.6,-2.58 -2.6,-6.54 0,-4.02 2.62,-6.68 2.62,-2.68 6.7,-2.68 4.1,0 6.7,2.66 2.6,2.66 2.6,6.7 z m -4.02,-0.04 q 0,-3.66 -1.42,-5.84 -1.4,-2.2 -3.86,-2.2 -2.44,0 -3.86,2.2 -1.42,2.2 -1.42,5.84 0,3.62 1.4,5.76 1.4,2.12 3.88,2.12 2.48,0 3.88,-2.1 1.4,-2.12 1.4,-5.78 z" />
        <path
           id="path3504"
           style="fill:#ffffff"
           d="m 75.235388,27.496764 q 0,0.82 -0.62,1.3 -0.62,0.46 -1.7,0.46 -0.96,0 -1.94,-0.74 -0.82,-0.62 -1.46,-0.62 -1.36,0 -2.32,1.52 -0.96,1.5 -0.96,4.08 l 0,4.66 4.48,0 q 0.48,0 0.48,1.08 0,1.08 -0.48,1.08 l -4.52,-0.16 0,10.04 q 0,1.96 0.48,2.56 0.48,0.6 2.2,0.82 0.32,0.04 0.32,0.54 0,0.56 -0.32,0.56 -0.82,0 -2.08,-0.12 -1.42,-0.12 -2.4,-0.12 -1,0 -2.4,0.12 -1.26,0.12 -2.08,0.12 -0.32,0 -0.32,-0.56 0,-0.5 0.32,-0.54 1.7,-0.22 2.18,-0.82 0.5,-0.6 0.5,-2.56 l 0,-9.56 q 0,-0.56 -0.48,-0.56 l -2.04,0 q -0.4,0 -0.4,-0.52 0,-0.52 0.36,-0.6 2.56,-0.58 2.56,-1.12 0,-4.84 2.94,-8.52 2.96,-3.7 6.82,-3.7 1.34,0 2.1,0.5 0.78,0.5 0.78,1.38 z" />
        <path
           id="path3506"
           style="fill:#ffffff"
           d="m 85.212888,38.756764 q 0,1.08 -0.52,1.08 l -5.96,-0.16 0,9.6 q 0,3.76 2.68,3.76 1.66,0 3.02,-0.78 0.16,0 0.28,0.22 0.14,0.2 0.14,0.44 0,0.5 -1.5,1.36 -1.48,0.84 -3.34,0.84 -2.28,0 -3.64,-1.38 -1.36,-1.4 -1.36,-3.68 l 0,-0.18 0.08,-9.72 q 0,-0.56 -0.48,-0.56 l -1.52,0 q -0.44,0 -0.44,-0.52 0,-0.4 0.36,-0.6 2.78,-1.64 4.84,-4.62 0.22,-0.32 0.56,-0.32 0.56,0 0.56,0.32 l -0.16,3.82 5.88,0 q 0.52,0 0.52,1.08 z" />
        <path
           id="path3508"
           style="fill:#ffffff"
           d="m 115.04039,37.996764 q 0,0.5 -0.32,0.54 -1.64,0.24 -2.26,0.86 -0.6,0.62 -1.44,2.52 l -5.74,13.08 q -0.18,0.32 -0.52,0.32 -0.32,0 -0.44,-0.32 l -4.1,-10.48 -4.680002,10.48 q -0.2,0.32 -0.52,0.32 -0.36,0 -0.5,-0.32 l -5.38,-13.08 q -0.7,-1.72 -1.52,-2.46 -0.82,-0.76 -2.2,-0.9 -0.32,-0.04 -0.32,-0.56 0,-0.56 0.32,-0.56 0.82,0 2.02,0.12 1.34,0.12 2.34,0.12 0.98,0 2.3,-0.12 1.2,-0.12 2.02,-0.12 0.32,0 0.32,0.56 0,0.52 -0.32,0.56 -1,0.12 -1.4,0.42 -0.4,0.28 -0.4,0.9 0,0.62 0.56,2.06 l 3.24,8.22 3.4,-7.68 -0.28,-1.04 q -0.1,-0.22 -0.24,-0.62 -0.5,-1.34 -0.86,-1.74 -0.36,-0.42 -1.3,-0.52 -0.32,-0.04 -0.32,-0.56 0,-0.56 0.32,-0.56 0.72,0 1.74,0.12 1.1,0.12 1.940002,0.12 0.98,0 2.3,-0.12 1.22,-0.12 2.04,-0.12 0.32,0 0.32,0.56 0,0.5 -0.32,0.54 -2.1,0.28 -2.1,2.02 0,0.8 0.22,1.36 l 3,7.96 3.2,-7.52 q 0.56,-1.32 0.56,-2.2 0,-1.38 -1.78,-1.62 -0.34,-0.04 -0.34,-0.54 0,-0.56 0.32,-0.56 0.86,0 1.88,0.12 0.98,0.12 1.76,0.12 0.42,0 1.26,-0.1 1.14,-0.14 1.9,-0.14 0.32,0 0.32,0.56 z" />
        <path
           id="path3510"
           style="fill:#ffffff"
           d="m 128.34914,55.116764 q -1.12,0 -1.96,-0.56 -0.82,-0.54 -1.12,-1.48 -2.14,2.2 -5.6,2.2 -1.8,0 -2.94,-1.1 -1.14,-1.12 -1.14,-2.78 0,-4.1 9.72,-6.64 l 0.12,-3.12 0,-0.1 q 0,-1.44 -0.72,-2.28 -0.7,-0.86 -1.88,-0.86 -1.18,0 -2,0.58 -0.82,0.56 -0.84,1.42 -0.02,1.28 -0.68,2 -0.64,0.72 -1.72,0.72 -0.64,0 -1.04,-0.38 -0.4,-0.38 -0.4,-1.02 0,-1.54 2.8,-3.22 2.8,-1.7 5.2,-1.7 2.16,0 3.5,1.28 1.34,1.28 1.34,3.44 l 0,0.24 -0.28,9.04 0,0.14 q 0,2.1 1.36,2.1 0.66,0 1.54,-0.8 l 0.14,-0.04 q 0.16,0 0.3,0.22 0.14,0.2 0.14,0.44 0,0.58 -1.22,1.42 -1.2,0.84 -2.62,0.84 z m -3.08,-9 q -5.84,1.32 -5.84,4.36 0,2.84 2.2,2.84 1.06,0 2.08,-0.52 1.04,-0.54 1.4,-1.32 l 0.16,-5.36 z" />
        <path
           id="path3512"
           style="fill:#ffffff"
           d="m 146.76164,38.796764 q 0,0.8 -0.5,1.36 -0.48,0.56 -1.18,0.56 -0.88,0 -1.74,-0.58 -0.68,-0.46 -1.18,-0.46 -1.3,0 -2.68,1.52 l 0,9 q 0,1.74 0.6,2.44 0.6,0.68 2.56,0.94 0.32,0.04 0.32,0.54 0,0.56 -0.32,0.56 -0.82,0 -2.32,-0.12 -1.66,-0.12 -2.64,-0.12 -1,0 -2.42,0.12 -1.28,0.12 -2.1,0.12 -0.32,0 -0.32,-0.56 0,-0.5 0.32,-0.54 1.74,-0.22 2.22,-0.82 0.5,-0.6 0.5,-2.56 l 0,-7.4 q 0,-1.6 -0.42,-2.1 -0.4,-0.5 -1.82,-0.66 -0.32,0 -0.32,-0.52 0,-0.48 0.32,-0.48 1.98,-0.5 3.26,-1.1 1.3,-0.62 1.7,-1.06 0.24,-0.24 0.48,-0.24 0.56,0 0.56,0.32 l -0.16,2.52 q 1.6,-1.48 2.74,-2.08 1.16,-0.6 2.3,-0.6 0.92,0 1.58,0.6 0.66,0.6 0.66,1.4 z" />
        <path
           id="path3514"
           style="fill:#ffffff"
           d="m 163.96539,43.316764 q 0,0.56 -0.72,0.56 l -10.96,0 q -0.12,1.08 -0.12,2.24 0,3.22 1.52,4.96 1.54,1.72 4.36,1.72 1.42,0 2.86,-0.76 1.44,-0.76 2.32,-1.94 l 0.1,-0.04 q 0.18,0 0.34,0.22 0.18,0.22 0.18,0.52 0,0.42 -1.28,1.76 -1.28,1.32 -2.78,2.02 -1.5,0.7 -3.14,0.7 -3.6,0 -6.06,-2.64 -2.46,-2.64 -2.46,-6.48 0,-3.92 2.4,-6.64 2.42,-2.72 6.12,-2.72 3.1,0 5.2,2.04 2.12,2.02 2.12,4.48 z m -3.64,-1.76 q 0,-1.5 -1.04,-2.48 -1.02,-1 -2.64,-1 -1.54,0 -2.68,1.3 -1.12,1.28 -1.52,3.38 l 5.56,-0.16 q 1.26,-0.02 1.78,-0.24 0.54,-0.22 0.54,-0.8 z" />
      </g>
      <g
         id="text3386"
         style="font-style:normal;font-variant:normal;font-weight:100;font-stretch:normal;font-size:17.5px;line-height:125%;font-family:'Hoefler Text';-inkscape-font-specification:'Hoefler Text, Thin';text-align:start;letter-spacing:0px;word-spacing:0px;writing-mode:lr-tb;text-anchor:start;fill:#ffffff;fill-opacity:1;stroke:none;stroke-width:1px;stroke-linecap:butt;stroke-linejoin:miter;stroke-opacity:1">
        <path
           id="path3517"
           style="font-style:normal;font-variant:normal;font-weight:100;font-stretch:normal;font-size:17.5px;line-height:125%;font-family:'Hoefler Text';-inkscape-font-specification:'Hoefler Text, Thin';text-align:start;writing-mode:lr-tb;text-anchor:start;fill:#ffffff"
           d="m 47.468441,17.571592 q 0,0.16625 -0.315,0.16625 -0.14,0 -0.175,-0.1225 -0.37625,-1.23375 -1.07625,-1.74125 -0.7,-0.51625 -2.07375,-0.51625 l -0.8225,0 q -0.42875,0 -0.58625,0.14 -0.1575,0.14 -0.1575,0.525 l 0,8.88125 q 0,0.60375 0.14875,0.8575 0.1575,0.245 0.5425,0.39375 0.39375,0.14 1.12,0.2275 0.14,0.0175 0.14,0.23625 0,0.245 -0.14,0.245 -0.58625,0 -1.4,-0.0525 -0.77,-0.0525 -1.28625,-0.0525 -0.53375,0 -1.3125,0.0525 -0.81375,0.0525 -1.4,0.0525 -0.14,0 -0.14,-0.245 0,-0.21875 0.14,-0.23625 1.05875,-0.1225 1.435,-0.39375 0.385,-0.27125 0.385,-1.085 l 0,-8.88125 q 0,-0.385 -0.1575,-0.525 -0.1575,-0.14 -0.595,-0.14 l -0.6825,0 q -1.23375,0 -2.24,0.63 -1.00625,0.62125 -1.3125,1.61875 -0.04375,0.13125 -0.1925,0.13125 -0.2975,0 -0.2975,-0.1925 0.49,-1.32125 0.9275,-2.9925 1.19,0.245 5.4425,0.245 4.36625,0 5.55625,-0.245 0.1225,1.1375 0.525,3.01875 z" />
        <path
           id="path3519"
           style="font-style:normal;font-variant:normal;font-weight:100;font-stretch:normal;font-size:17.5px;line-height:125%;font-family:'Hoefler Text';-inkscape-font-specification:'Hoefler Text, Thin';text-align:start;writing-mode:lr-tb;text-anchor:start;fill:#ffffff"
           d="m 57.126527,26.619092 q 0,0.245 -0.14,0.245 -0.35,0 -0.86625,-0.0525 -0.56,-0.0525 -0.98,-0.0525 -0.4375,0 -1.00625,0.0525 -0.51625,0.0525 -0.86625,0.0525 -0.14,0 -0.14,-0.245 0,-0.21875 0.14,-0.23625 0.60375,-0.07 0.7875,-0.34125 0.1925,-0.27125 0.1925,-1.1375 l 0,-2.9225 q 0,-1.89 -1.715,-1.89 -1.085,0 -1.8725,0.875 l 0,3.9375 q 0,0.7875 0.2275,1.09375 0.2275,0.30625 0.8925,0.385 0.14,0.0175 0.14,0.23625 0,0.245 -0.14,0.245 -0.35875,0 -0.93625,-0.0525 -0.6475,-0.0525 -1.07625,-0.0525 -0.4375,0 -0.9975,0.0525 -0.49875,0.0525 -0.8575,0.0525 -0.14,0 -0.14,-0.245 0,-0.21875 0.14,-0.23625 0.735,-0.07875 0.95375,-0.34125 0.21875,-0.27125 0.21875,-1.1375 l 0,-8.12875 q 0,-0.70875 -0.175,-0.9275 -0.16625,-0.21875 -0.7875,-0.28875 -0.14,-0.0175 -0.14,-0.21875 0,-0.2275 0.14,-0.2275 1.49625,-0.35 2.21375,-0.9275 0.13125,-0.105 0.21875,-0.105 0.245,0 0.245,0.14 -0.14,1.435 -0.14,3.045 l 0,2.96625 q 1.25125,-1.19 2.4675,-1.19 1.2425,0 1.95125,0.6825 0.7175,0.6825 0.7175,1.8375 l 0,3.3425 q 0,0.8575 0.21875,1.12875 0.2275,0.2625 0.97125,0.35 0.14,0.0175 0.14,0.23625 z" />
        <path
           id="path3521"
           style="font-style:normal;font-variant:normal;font-weight:100;font-stretch:normal;font-size:17.5px;line-height:125%;font-family:'Hoefler Text';-inkscape-font-specification:'Hoefler Text, Thin';text-align:start;writing-mode:lr-tb;text-anchor:start;fill:#ffffff"
           d="m 64.759808,21.894092 q 0,0.245 -0.315,0.245 l -4.795,0 q -0.0525,0.4725 -0.0525,0.98 0,1.40875 0.665,2.17 0.67375,0.7525 1.9075,0.7525 0.62125,0 1.25125,-0.3325 0.63,-0.3325 1.015,-0.84875 l 0.04375,-0.0175 q 0.07875,0 0.14875,0.09625 0.07875,0.09625 0.07875,0.2275 0,0.18375 -0.56,0.77 -0.56,0.5775 -1.21625,0.88375 -0.65625,0.30625 -1.37375,0.30625 -1.575,0 -2.65125,-1.155 -1.07625,-1.155 -1.07625,-2.835 0,-1.715 1.05,-2.905 1.05875,-1.19 2.6775,-1.19 1.35625,0 2.275,0.8925 0.9275,0.88375 0.9275,1.96 z m -1.5925,-0.77 q 0,-0.65625 -0.455,-1.085 -0.44625,-0.4375 -1.155,-0.4375 -0.67375,0 -1.1725,0.56875 -0.49,0.56 -0.665,1.47875 l 2.4325,-0.07 q 0.55125,-0.0087 0.77875,-0.105 0.23625,-0.09625 0.23625,-0.35 z" />
        <path
           id="path3523"
           style="font-style:normal;font-variant:normal;font-weight:100;font-stretch:normal;font-size:17.5px;line-height:125%;font-family:'Hoefler Text';-inkscape-font-specification:'Hoefler Text, Thin';text-align:start;writing-mode:lr-tb;text-anchor:start;fill:#ffffff"
           d="m 93.551683,14.955342 q 0,0.21875 -0.14,0.23625 -1.09375,0.1225 -1.505,0.4025 -0.4025,0.28 -0.42,1.07625 l -0.1925,10.29875 q 0,0.175 -0.21,0.175 -0.105,0 -0.28,-0.14 l -9.02125,-10.19375 -0.1225,8.09375 q -0.0087,0.07 -0.0087,0.13125 0,0.665 0.42,0.945 0.42,0.27125 1.51375,0.4025 0.14,0.0175 0.14,0.23625 0,0.245 -0.14,0.245 -0.455,0 -1.25125,-0.0525 -0.74375,-0.0525 -1.14625,-0.0525 -0.4375,0 -1.18125,0.0525 -0.7175,0.0525 -1.11125,0.0525 -0.14,0 -0.14,-0.245 0,-0.21875 0.1575,-0.23625 1.085,-0.13125 1.4875,-0.4025 0.4025,-0.28 0.42875,-1.07625 l 0.30625,-8.23375 0,-0.07875 q 0,-0.70875 -0.41125,-0.98875 -0.41125,-0.28 -1.53125,-0.42 -0.1225,0 -0.1225,-0.245 0,-0.245 0.14,-0.245 0.30625,0 0.8575,0.0525 0.49,0.0525 0.735,0.0525 0.30625,0 0.735,-0.0525 0.4375,-0.0525 0.7525,-0.0525 l 8.42625,9.42375 0,-7.44625 q 0,-0.74375 -0.42875,-1.04125 -0.42,-0.30625 -1.56625,-0.4375 -0.14,-0.0175 -0.14,-0.23625 0,-0.245 0.14,-0.245 0.4725,0 1.26,0.04375 0.735,0.04375 1.1375,0.04375 0.4375,0 1.18125,-0.04375 0.7175,-0.04375 1.11125,-0.04375 0.14,0 0.14,0.245 z" />
        <path
           id="path3525"
           style="font-style:normal;font-variant:normal;font-weight:100;font-stretch:normal;font-size:17.5px;line-height:125%;font-family:'Hoefler Text';-inkscape-font-specification:'Hoefler Text, Thin';text-align:start;writing-mode:lr-tb;text-anchor:start;fill:#ffffff"
           d="m 99.831996,27.056592 q -0.49,0 -0.8575,-0.245 -0.35875,-0.23625 -0.49,-0.6475 -0.93625,0.9625 -2.45,0.9625 -0.7875,0 -1.28625,-0.48125 -0.49875,-0.49 -0.49875,-1.21625 0,-1.79375 4.2525,-2.905 l 0.0525,-1.365 0,-0.04375 q 0,-0.63 -0.315,-0.9975 -0.30625,-0.37625 -0.8225,-0.37625 -0.51625,0 -0.875,0.25375 -0.35875,0.245 -0.3675,0.62125 -0.0088,0.56 -0.2975,0.875 -0.28,0.315 -0.7525,0.315 -0.28,0 -0.455,-0.16625 -0.175,-0.16625 -0.175,-0.44625 0,-0.67375 1.225,-1.40875 1.225,-0.74375 2.275,-0.74375 0.945,0 1.53125,0.56 0.586254,0.56 0.586254,1.505 l 0,0.105 -0.122504,3.955 0,0.06125 q 0,0.91875 0.595004,0.91875 0.28875,0 0.67375,-0.35 l 0.0613,-0.0175 q 0.07,0 0.13125,0.09625 0.0613,0.0875 0.0613,0.1925 0,0.25375 -0.53375,0.62125 -0.525,0.3675 -1.146254,0.3675 z m -1.3475,-3.9375 q -2.555,0.5775 -2.555,1.9075 0,1.2425 0.9625,1.2425 0.46375,0 0.91,-0.2275 0.455,-0.23625 0.6125,-0.5775 l 0.07,-2.345 z" />
        <path
           id="path3527"
           style="font-style:normal;font-variant:normal;font-weight:100;font-stretch:normal;font-size:17.5px;line-height:125%;font-family:'Hoefler Text';-inkscape-font-specification:'Hoefler Text, Thin';text-align:start;writing-mode:lr-tb;text-anchor:start;fill:#ffffff"
           d="m 107.41496,19.899092 q 0,0.4725 -0.2275,0.4725 l -2.6075,-0.07 0,4.2 q 0,1.645 1.1725,1.645 0.72625,0 1.32125,-0.34125 0.07,0 0.1225,0.09625 0.0613,0.0875 0.0613,0.1925 0,0.21875 -0.65625,0.595 -0.6475,0.3675 -1.46125,0.3675 -0.9975,0 -1.5925,-0.60375 -0.595,-0.6125 -0.595,-1.61 l 0,-0.07875 0.035,-4.2525 q 0,-0.245 -0.21,-0.245 l -0.665,0 q -0.1925,0 -0.1925,-0.2275 0,-0.175 0.1575,-0.2625 1.21625,-0.7175 2.1175,-2.02125 0.0963,-0.14 0.245,-0.14 0.245,0 0.245,0.14 l -0.07,1.67125 2.5725,0 q 0.2275,0 0.2275,0.4725 z" />
        <path
           id="path3529"
           style="font-style:normal;font-variant:normal;font-weight:100;font-stretch:normal;font-size:17.5px;line-height:125%;font-family:'Hoefler Text';-inkscape-font-specification:'Hoefler Text, Thin';text-align:start;writing-mode:lr-tb;text-anchor:start;fill:#ffffff"
           d="m 116.7545,26.286592 q 0,0.18375 -0.14,0.20125 -1.5925,0.175 -2.17875,0.6125 -0.1225,0.09625 -0.245,0.09625 -0.175,0 -0.175,-0.14 l 0.07,-1.1025 q -1.295,1.1725 -2.345,1.1725 -1.19875,0 -1.8725,-0.67375 -0.665,-0.6825 -0.665,-1.84625 l 0,-3.2725 q 0,-0.77875 -0.20125,-1.0325 -0.20125,-0.25375 -0.79625,-0.25375 -0.11375,0 -0.25375,0.0087 -0.13125,0 -0.13125,-0.2275 0,-0.28 0.14,-0.28 1.015,0 2.66,-0.39375 0.1575,0 0.1575,0.21875 l 0,4.8125 q 0,0.98875 0.37625,1.44375 0.37625,0.44625 1.18125,0.44625 0.51625,0 0.91,-0.1925 0.39375,-0.1925 0.84,-0.6825 l 0,-3.8675 q 0,-0.77 -0.21,-1.02375 -0.20125,-0.2625 -0.81375,-0.2625 -0.105,0 -0.245,0.0087 -0.13125,0 -0.13125,-0.2275 0,-0.28 0.14,-0.28 1.015,0 2.66,-0.39375 0.1575,0 0.1575,0.21875 l 0,5.5825 q 0,0.60375 0.16625,0.81375 0.175,0.20125 0.805,0.28875 0.14,0 0.14,0.2275 z" />
        <path
           id="path3531"
           style="font-style:normal;font-variant:normal;font-weight:100;font-stretch:normal;font-size:17.5px;line-height:125%;font-family:'Hoefler Text';-inkscape-font-specification:'Hoefler Text, Thin';text-align:start;writing-mode:lr-tb;text-anchor:start;fill:#ffffff"
           d="m 123.4734,19.916592 q 0,0.35 -0.21875,0.595 -0.21,0.245 -0.51625,0.245 -0.385,0 -0.76125,-0.25375 -0.2975,-0.20125 -0.51625,-0.20125 -0.56875,0 -1.1725,0.665 l 0,3.9375 q 0,0.76125 0.2625,1.0675 0.2625,0.2975 1.12,0.41125 0.14,0.0175 0.14,0.23625 0,0.245 -0.14,0.245 -0.35875,0 -1.015,-0.0525 -0.72625,-0.0525 -1.155,-0.0525 -0.4375,0 -1.05875,0.0525 -0.56,0.0525 -0.91875,0.0525 -0.14,0 -0.14,-0.245 0,-0.21875 0.14,-0.23625 0.76125,-0.09625 0.97125,-0.35875 0.21875,-0.2625 0.21875,-1.12 l 0,-3.2375 q 0,-0.7 -0.18375,-0.91875 -0.175,-0.21875 -0.79625,-0.28875 -0.14,0 -0.14,-0.2275 0,-0.21 0.14,-0.21 0.86625,-0.21875 1.42625,-0.48125 0.56875,-0.27125 0.74375,-0.46375 0.105,-0.105 0.21,-0.105 0.245,0 0.245,0.14 l -0.07,1.1025 q 0.7,-0.6475 1.19875,-0.91 0.5075,-0.2625 1.00625,-0.2625 0.4025,0 0.69125,0.2625 0.28875,0.2625 0.28875,0.6125 z" />
        <path
           id="path3533"
           style="font-style:normal;font-variant:normal;font-weight:100;font-stretch:normal;font-size:17.5px;line-height:125%;font-family:'Hoefler Text';-inkscape-font-specification:'Hoefler Text, Thin';text-align:start;writing-mode:lr-tb;text-anchor:start;fill:#ffffff"
           d="m 131.00004,21.894092 q 0,0.245 -0.315,0.245 l -4.795,0 q -0.0525,0.4725 -0.0525,0.98 0,1.40875 0.665,2.17 0.67375,0.7525 1.9075,0.7525 0.62125,0 1.25125,-0.3325 0.63,-0.3325 1.015,-0.84875 l 0.0438,-0.0175 q 0.0787,0 0.14875,0.09625 0.0788,0.09625 0.0788,0.2275 0,0.18375 -0.56,0.77 -0.56,0.5775 -1.21625,0.88375 -0.65625,0.30625 -1.37375,0.30625 -1.575,0 -2.65125,-1.155 -1.07625,-1.155 -1.07625,-2.835 0,-1.715 1.05,-2.905 1.05875,-1.19 2.6775,-1.19 1.35625,0 2.275,0.8925 0.9275,0.88375 0.9275,1.96 z m -1.5925,-0.77 q 0,-0.65625 -0.455,-1.085 -0.44625,-0.4375 -1.155,-0.4375 -0.67375,0 -1.1725,0.56875 -0.49,0.56 -0.665,1.47875 l 2.4325,-0.07 q 0.55125,-0.0087 0.77875,-0.105 0.23625,-0.09625 0.23625,-0.35 z" />
        <path
           id="path3535"
           style="font-style:normal;font-variant:normal;font-weight:100;font-stretch:normal;font-size:17.5px;line-height:125%;font-family:'Hoefler Text';-inkscape-font-specification:'Hoefler Text, Thin';text-align:start;writing-mode:lr-tb;text-anchor:start;fill:#ffffff"
           d="m 144.79442,23.136592 q 0,1.74125 -1.1375,2.87 -1.12875,1.12 -2.93125,1.12 -1.8025,0 -2.94,-1.12875 -1.1375,-1.12875 -1.1375,-2.86125 0,-1.75875 1.14625,-2.9225 1.14625,-1.1725 2.93125,-1.1725 1.79375,0 2.93125,1.16375 1.1375,1.16375 1.1375,2.93125 z m -1.75875,-0.0175 q 0,-1.60125 -0.62125,-2.555 -0.6125,-0.9625 -1.68875,-0.9625 -1.0675,0 -1.68875,0.9625 -0.62125,0.9625 -0.62125,2.555 0,1.58375 0.6125,2.52 0.6125,0.9275 1.6975,0.9275 1.085,0 1.6975,-0.91875 0.6125,-0.9275 0.6125,-2.52875 z" />
        <path
           id="path3537"
           style="font-style:normal;font-variant:normal;font-weight:100;font-stretch:normal;font-size:17.5px;line-height:125%;font-family:'Hoefler Text';-inkscape-font-specification:'Hoefler Text, Thin';text-align:start;writing-mode:lr-tb;text-anchor:start;fill:#ffffff"
           d="m 152.98633,14.972842 q 0,0.35875 -0.27125,0.56875 -0.27125,0.20125 -0.74375,0.20125 -0.42,0 -0.84875,-0.32375 -0.35875,-0.27125 -0.63875,-0.27125 -0.595,0 -1.015,0.665 -0.42,0.65625 -0.42,1.785 l 0,2.03875 1.96,0 q 0.21,0 0.21,0.4725 0,0.4725 -0.21,0.4725 l -1.9775,-0.07 0,4.3925 q 0,0.8575 0.21,1.12 0.21,0.2625 0.9625,0.35875 0.14,0.0175 0.14,0.23625 0,0.245 -0.14,0.245 -0.35875,0 -0.91,-0.0525 -0.62125,-0.0525 -1.05,-0.0525 -0.4375,0 -1.05,0.0525 -0.55125,0.0525 -0.91,0.0525 -0.14,0 -0.14,-0.245 0,-0.21875 0.14,-0.23625 0.74375,-0.09625 0.95375,-0.35875 0.21875,-0.2625 0.21875,-1.12 l 0,-4.1825 q 0,-0.245 -0.21,-0.245 l -0.8925,0 q -0.175,0 -0.175,-0.2275 0,-0.2275 0.1575,-0.2625 1.12,-0.25375 1.12,-0.49 0,-2.1175 1.28625,-3.7275 1.295,-1.61875 2.98375,-1.61875 0.58625,0 0.91875,0.21875 0.34125,0.21875 0.34125,0.60375 z" />
      </g>
    </g>
  </g>
</svg>
